<?xml version="1.0" encoding="UTF-8"?>
<svg id="SVGRoot" width="256px" height="256px" version="1.1" viewBox="0 0 256 256" xmlns="http://www.w3.org/2000/svg">
 <defs>
  <mask id="mask-powermask-path-effect5286" maskUnits="userSpaceOnUse">
   <path id="mask-powermask-path-effect5286_box" d="m44.526 9.5255h165.95v235.95h-165.95z" fill="#fff"/>
   <g transform="translate(-161.66 -19.604)" fill="#1f1f1f" stroke="#000">
    <g fill="#000" stroke="#000">
     <g fill="#000" stroke="#000">
      <g fill="#000" stroke="#000">
       <g transform="translate(155,10)">
        <circle transform="translate(-106.19 -41.907)" cx="257.24" cy="185.2" r="42.869" fill="#000" stroke="#000" stroke-linejoin="round" stroke-width="26"/>
        <path d="m185 170c55.263 58.947 55.263 58.947 55.263 58.947l-11.053 11.053-55.263-58.947z" fill="#000" stroke="#000" stroke-linejoin="round" stroke-width="20"/>
       </g>
       <circle cx="304.4" cy="154.09" r="30" fill="#000" stroke="#000" stroke-linejoin="round" stroke-width="15.842"/>
      </g>
     </g>
    </g>
   </g>
  </mask>
 </defs>
 <g>
  <g fill-opacity="0" mask="url(#mask-powermask-path-effect5286)" stroke="#9c9c9c" stroke-linejoin="round">
   <path x="50" y="15" width="155" height="225" d="m50 15h155v225h-155z" stroke-width="8.949"/>
   <g stroke-width="9.1335">
    <path x="65" y="115" width="125" height="5" d="m65 115h125v5h-125z"/>
    <path x="65" y="165" width="125" height="5" d="m65 165h125v5h-125z"/>
    <path x="65" y="140" width="125" height="5" d="m65 140h125v5h-125z"/>
    <path x="65" y="190" width="125" height="5" d="m65 190h125v5h-125z"/>
    <path x="65" y="215" width="125" height="5" d="m65 215h125v5h-125z"/>
   </g>
  </g>
  <a stroke="#f00"></a>
  <a transform="translate(-106.19 -41.907)" stroke="#ff9c9c" stroke-opacity=".4025" stroke-width="24" target="asdf"/>
  <g transform="translate(-6.6612 -9.6043)" fill="none" stroke="#9c9c9c">
   <circle cx="151.06" cy="143.29" r="42.869" stroke-linejoin="round" stroke-width="11.79"/>
   <path d="m185 170c55.263 58.947 55.263 58.947 55.263 58.947l-11.053 11.053-55.263-58.947z" stroke-linejoin="round" stroke-width="8.8421"/>
   <path d="m185.99 178c3.2008 3.7821 48.596 51.502 48.596 51.502l-5.2381 4.0737-48.886-51.212z" stroke-width="7"/>
  </g>
 </g>
</svg>
